HIERARCHY
ROOT Hips
{
	OFFSET 0.000000 87.230942 0.000000
	CHANNELS 6 Xposition Yposition Zposition Xrotation Yrotation Zrotation
	JOINT Pelvis
	{
		OFFSET 0.000000 0.000000 0.000000
		CHANNELS 3 Xrotation Yrotation Zrotation
		JOINT LeftUpLeg
		{
			OFFSET 12.017000 -9.376404 -2.439400
			CHANNELS 3 Xrotation Yrotation Zrotation
			JOINT LeftLeg
			{
				OFFSET -0.007312 -32.846973 2.110600
				CHANNELS 3 Xrotation Yrotation Zrotation
				JOINT LeftFoot
				{
					OFFSET 0.007312 -32.065170 -0.570400
					CHANNELS 3 Xrotation Yrotation Zrotation
					JOINT LeftToeBase
					{
						OFFSET 0.728300 -11.045900 13.180700
						CHANNELS 3 Xrotation Yrotation Zrotation
						End Site
						{
							OFFSET 0.000000 17.212589 0.000000
						}
					}
				}
				JOINT LeftPantLeg
				{
					OFFSET 0.002788 -16.709013 -3.143600
					CHANNELS 3 Xrotation Yrotation Zrotation
					End Site
					{
						OFFSET -0.605125 24.528742 0.000000
					}
				}
			}
			JOINT Left_Butt
			{
				OFFSET -6.630234 1.326584 -3.183700
				CHANNELS 3 Xrotation Yrotation Zrotation
				End Site
				{
					OFFSET -0.498041 20.188049 0.000000
				}
			}
		}
		JOINT RightUpLeg
		{
			OFFSET -11.717000 -9.376404 -2.439400
			CHANNELS 3 Xrotation Yrotation Zrotation
			JOINT RightLeg
			{
				OFFSET -0.003241 -32.846912 2.110600
				CHANNELS 3 Xrotation Yrotation Zrotation
				JOINT RightFoot
				{
					OFFSET 0.003241 -32.065136 -0.570500
					CHANNELS 3 Xrotation Yrotation Zrotation
					JOINT RightToeBase
					{
						OFFSET -0.728300 -11.045901 13.180700
						CHANNELS 3 Xrotation Yrotation Zrotation
						End Site
						{
							OFFSET 0.000000 17.212593 0.000000
						}
					}
				}
				JOINT RightPantLeg
				{
					OFFSET 0.008142 -16.708982 -3.143700
					CHANNELS 3 Xrotation Yrotation Zrotation
					End Site
					{
						OFFSET 0.605088 24.528715 0.000000
					}
				}
			}
			JOINT Right_Butt
			{
				OFFSET 6.630732 1.326584 -3.183700
				CHANNELS 3 Xrotation Yrotation Zrotation
				End Site
				{
					OFFSET 0.498015 20.188240 0.000000
				}
			}
		}
	}
	JOINT Spine
	{
		OFFSET -0.062400 7.848404 3.918300
		CHANNELS 3 Xrotation Yrotation Zrotation
		JOINT Spine1
		{
			OFFSET -0.072800 11.422302 0.713400
			CHANNELS 3 Xrotation Yrotation Zrotation
			JOINT Spine2
			{
				OFFSET -0.083200 13.054001 -1.931600
				CHANNELS 3 Xrotation Yrotation Zrotation
				JOINT Neck
				{
					OFFSET -0.092200 14.121796 -5.138800
					CHANNELS 3 Xrotation Yrotation Zrotation
					JOINT Head
					{
						OFFSET 0.000200 10.447403 -0.842000
						CHANNELS 3 Xrotation Yrotation Zrotation
						JOINT Visor
						{
							OFFSET 0.457100 25.671204 16.550400
							CHANNELS 3 Xrotation Yrotation Zrotation
							End Site
							{
								OFFSET 0.000000 26.061493 0.000000
							}
						}
						JOINT HairMidA
						{
							OFFSET 0.459400 31.585403 8.437400
							CHANNELS 3 Xrotation Yrotation Zrotation
							End Site
							{
								OFFSET 0.000000 26.061493 0.000000
							}
						}
						JOINT HairMidB
						{
							OFFSET 0.464000 33.309204 -8.389700
							CHANNELS 3 Xrotation Yrotation Zrotation
							End Site
							{
								OFFSET 0.000000 26.061493 0.000000
							}
						}
						JOINT HairMidC
						{
							OFFSET 0.466600 27.991196 -17.375099
							CHANNELS 3 Xrotation Yrotation Zrotation
							End Site
							{
								OFFSET 0.000000 26.061493 0.000000
							}
						}
						JOINT HairMidD
						{
							OFFSET 0.467700 17.888092 -21.169500
							CHANNELS 3 Xrotation Yrotation Zrotation
							End Site
							{
								OFFSET 0.000000 26.061493 0.000000
							}
						}
						JOINT HairMidE
						{
							OFFSET 5.325700 3.514603 -14.369699
							CHANNELS 3 Xrotation Yrotation Zrotation
							End Site
							{
								OFFSET 0.000000 26.061493 0.000000
							}
						}
						JOINT HairMidF
						{
							OFFSET -4.394100 3.514603 -14.372400
							CHANNELS 3 Xrotation Yrotation Zrotation
							End Site
							{
								OFFSET 0.000000 26.061493 0.000000
							}
						}
						JOINT HairLeftA
						{
							OFFSET 15.319900 25.746506 2.623300
							CHANNELS 3 Xrotation Yrotation Zrotation
							End Site
							{
								OFFSET 0.000000 26.061493 0.000000
							}
						}
						JOINT HairLeftB
						{
							OFFSET 12.619500 29.289398 -8.731499
							CHANNELS 3 Xrotation Yrotation Zrotation
							End Site
							{
								OFFSET 0.000000 26.061493 0.000000
							}
						}
						JOINT HairLeftC
						{
							OFFSET 15.714800 15.959900 2.909800
							CHANNELS 3 Xrotation Yrotation Zrotation
							End Site
							{
								OFFSET 0.000000 26.061493 0.000000
							}
						}
						JOINT HairLeftD
						{
							OFFSET 16.101700 18.437408 -7.553200
							CHANNELS 3 Xrotation Yrotation Zrotation
							End Site
							{
								OFFSET 0.000000 26.061493 0.000000
							}
						}
						JOINT HairLeftE
						{
							OFFSET 9.731900 17.915009 -18.316799
							CHANNELS 3 Xrotation Yrotation Zrotation
							End Site
							{
								OFFSET 0.000000 26.061493 0.000000
							}
						}
						JOINT HairLeftF
						{
							OFFSET 11.204300 4.953598 -9.668100
							CHANNELS 3 Xrotation Yrotation Zrotation
							End Site
							{
								OFFSET 0.000000 26.061493 0.000000
							}
						}
						JOINT HairRightA
						{
							OFFSET -14.397900 25.746307 2.615100
							CHANNELS 3 Xrotation Yrotation Zrotation
							End Site
							{
								OFFSET 0.000000 26.061493 0.000000
							}
						}
						JOINT HairRightB
						{
							OFFSET -11.691200 29.289200 -8.738199
							CHANNELS 3 Xrotation Yrotation Zrotation
							End Site
							{
								OFFSET 0.000000 26.061493 0.000000
							}
						}
						JOINT HairRightC
						{
							OFFSET -14.792900 15.959702 2.901400
							CHANNELS 3 Xrotation Yrotation Zrotation
							End Site
							{
								OFFSET 0.000000 26.061493 0.000000
							}
						}
						JOINT HairRightD
						{
							OFFSET -15.174000 18.437195 -7.561900
							CHANNELS 3 Xrotation Yrotation Zrotation
							End Site
							{
								OFFSET 0.000000 26.061493 0.000000
							}
						}
						JOINT HairRightE
						{
							OFFSET -8.798200 17.914902 -18.322001
							CHANNELS 3 Xrotation Yrotation Zrotation
							End Site
							{
								OFFSET 0.000000 26.061493 0.000000
							}
						}
						JOINT HairRightF
						{
							OFFSET -10.275200 4.953506 -9.674099
							CHANNELS 3 Xrotation Yrotation Zrotation
							End Site
							{
								OFFSET 0.000000 26.061493 0.000000
							}
						}
					}
				}
				JOINT LeftShoulder
				{
					OFFSET 5.133500 7.341202 -1.867600
					CHANNELS 3 Xrotation Yrotation Zrotation
					JOINT LeftArm
					{
						OFFSET 8.072663 0.936867 -2.176600
						CHANNELS 3 Xrotation Yrotation Zrotation
						JOINT LeftForeArm
						{
							OFFSET 31.271999 0.000000 0.000000
							CHANNELS 3 Xrotation Yrotation Zrotation
							JOINT LeftHand
							{
								OFFSET 31.771030 0.000000 0.000000
								CHANNELS 3 Xrotation Yrotation Zrotation
								JOINT LeftHandThumb1
								{
									OFFSET 2.886520 -2.557846 4.416640
									CHANNELS 3 Xrotation Yrotation Zrotation
									JOINT LeftHandThumb2
									{
										OFFSET 2.371025 -1.368912 1.368911
										CHANNELS 3 Xrotation Yrotation Zrotation
										JOINT LeftHandThumb3
										{
											OFFSET 2.243378 -1.295212 1.295213
											CHANNELS 3 Xrotation Yrotation Zrotation
											End Site
											{
												OFFSET -0.332611 2.876945 0.020015
											}
										}
									}
								}
								JOINT LeftHandIndex1
								{
									OFFSET 8.568985 -0.641945 3.119977
									CHANNELS 3 Xrotation Yrotation Zrotation
									JOINT LeftHandIndex2
									{
										OFFSET 3.348503 0.000000 0.000000
										CHANNELS 3 Xrotation Yrotation Zrotation
										JOINT LeftHandIndex3
										{
											OFFSET 3.314552 0.000000 0.000000
											CHANNELS 3 Xrotation Yrotation Zrotation
											End Site
											{
												OFFSET -1.032898 3.075485 0.678796
											}
										}
									}
								}
								JOINT LeftHandMiddle1
								{
									OFFSET 8.124603 0.000000 0.000000
									CHANNELS 3 Xrotation Yrotation Zrotation
									JOINT LeftHandMiddle2
									{
										OFFSET 4.166275 0.000000 0.000000
										CHANNELS 3 Xrotation Yrotation Zrotation
										JOINT LeftHandMiddle3
										{
											OFFSET 3.018135 0.000000 0.000000
											CHANNELS 3 Xrotation Yrotation Zrotation
											End Site
											{
												OFFSET -1.032700 2.767982 0.617226
											}
										}
									}
								}
								JOINT LeftHandRing1
								{
									OFFSET 8.571686 -0.031357 -2.884048
									CHANNELS 3 Xrotation Yrotation Zrotation
									JOINT LeftHandRing2
									{
										OFFSET 3.671181 0.000000 0.000000
										CHANNELS 3 Xrotation Yrotation Zrotation
										JOINT LeftHandRing3
										{
											OFFSET 2.728851 0.000000 0.000000
											CHANNELS 3 Xrotation Yrotation Zrotation
											End Site
											{
												OFFSET -0.815796 2.539223 0.577389
											}
										}
									}
								}
								JOINT LeftHandPinky1
								{
									OFFSET 7.854515 -0.675232 -5.213020
									CHANNELS 3 Xrotation Yrotation Zrotation
									JOINT LeftHandPinky2
									{
										OFFSET 3.068596 0.000000 0.000000
										CHANNELS 3 Xrotation Yrotation Zrotation
										JOINT LeftHandPinky3
										{
											OFFSET 2.396042 0.000000 0.000000
											CHANNELS 3 Xrotation Yrotation Zrotation
											End Site
											{
												OFFSET -0.524597 2.267998 0.567429
											}
										}
									}
								}
							}
							JOINT LeftSleeve
							{
								OFFSET 19.684509 -0.200119 0.476146
								CHANNELS 3 Xrotation Yrotation Zrotation
								End Site
								{
									OFFSET -0.031017 25.731133 -0.002868
								}
							}
						}
					}
				}
				JOINT RightShoulder
				{
					OFFSET -4.395900 7.341202 -1.870200
					CHANNELS 3 Xrotation Yrotation Zrotation
					JOINT RightArm
					{
						OFFSET -8.071453 0.936867 -2.181100
						CHANNELS 3 Xrotation Yrotation Zrotation
						JOINT RightForeArm
						{
							OFFSET -31.272011 0.000000 0.000000
							CHANNELS 3 Xrotation Yrotation Zrotation
							JOINT RightHand
							{
								OFFSET -31.771019 0.000000 0.000000
								CHANNELS 3 Xrotation Yrotation Zrotation
								JOINT RightHandThumb1
								{
									OFFSET -2.886520 -2.557808 4.416626
									CHANNELS 3 Xrotation Yrotation Zrotation
									JOINT RightHandThumb2
									{
										OFFSET -2.371056 -1.368927 1.368928
										CHANNELS 3 Xrotation Yrotation Zrotation
										JOINT RightHandThumb3
										{
											OFFSET -2.243362 -1.295204 1.295206
											CHANNELS 3 Xrotation Yrotation Zrotation
											End Site
											{
												OFFSET 0.332642 2.876938 0.020047
											}
										}
									}
								}
								JOINT RightHandIndex1
								{
									OFFSET -8.568993 -0.641953 3.120017
									CHANNELS 3 Xrotation Yrotation Zrotation
									JOINT RightHandIndex2
									{
										OFFSET -3.348518 0.000000 0.000000
										CHANNELS 3 Xrotation Yrotation Zrotation
										JOINT RightHandIndex3
										{
											OFFSET -3.314552 0.000000 0.000000
											CHANNELS 3 Xrotation Yrotation Zrotation
											End Site
											{
												OFFSET 1.032898 3.075478 0.678804
											}
										}
									}
								}
								JOINT RightHandMiddle1
								{
									OFFSET -8.124588 0.000000 0.000000
									CHANNELS 3 Xrotation Yrotation Zrotation
									JOINT RightHandMiddle2
									{
										OFFSET -4.166275 0.000000 0.000000
										CHANNELS 3 Xrotation Yrotation Zrotation
										JOINT RightHandMiddle3
										{
											OFFSET -3.018097 0.000000 0.000000
											CHANNELS 3 Xrotation Yrotation Zrotation
											End Site
											{
												OFFSET 1.032700 2.767937 0.617197
											}
										}
									}
								}
								JOINT RightHandRing1
								{
									OFFSET -8.571747 -0.031349 -2.884061
									CHANNELS 3 Xrotation Yrotation Zrotation
									JOINT RightHandRing2
									{
										OFFSET -3.671204 0.000000 0.000000
										CHANNELS 3 Xrotation Yrotation Zrotation
										JOINT RightHandRing3
										{
											OFFSET -2.728874 0.000000 0.000000
											CHANNELS 3 Xrotation Yrotation Zrotation
											End Site
											{
												OFFSET 0.815804 2.539261 0.577413
											}
										}
									}
								}
								JOINT RightHandPinky1
								{
									OFFSET -7.854561 -0.675247 -5.212970
									CHANNELS 3 Xrotation Yrotation Zrotation
									JOINT RightHandPinky2
									{
										OFFSET -3.068550 0.000000 0.000000
										CHANNELS 3 Xrotation Yrotation Zrotation
										JOINT RightHandPinky3
										{
											OFFSET -2.395981 0.000000 0.000000
											CHANNELS 3 Xrotation Yrotation Zrotation
											End Site
											{
												OFFSET 0.524605 2.267952 0.567413
											}
										}
									}
								}
							}
							JOINT RightSleeve
							{
								OFFSET -19.684753 -0.200165 0.476065
								CHANNELS 3 Xrotation Yrotation Zrotation
								End Site
								{
									OFFSET 0.031342 25.731255 -0.002917
								}
							}
						}
					}
				}
				JOINT Hood
				{
					OFFSET 0.369700 14.447800 -5.317800
					CHANNELS 3 Xrotation Yrotation Zrotation
					JOINT Hood1
					{
						OFFSET 0.001700 -5.553802 -5.895100
						CHANNELS 3 Xrotation Yrotation Zrotation
						JOINT Hood2
						{
							OFFSET -0.000200 -8.380501 0.763600
							CHANNELS 3 Xrotation Yrotation Zrotation
							End Site
							{
								OFFSET 0.000000 8.415215 0.000000
							}
						}
					}
				}
				JOINT Left_Breast
				{
					OFFSET 5.682500 3.120102 3.188800
					CHANNELS 3 Xrotation Yrotation Zrotation
					End Site
					{
						OFFSET 0.000000 10.528564 0.000000
					}
				}
				JOINT Right_Breast
				{
					OFFSET -4.947600 3.120102 3.185900
					CHANNELS 3 Xrotation Yrotation Zrotation
					End Site
					{
						OFFSET 0.000000 10.528564 0.000000
					}
				}
				JOINT Whistle
				{
					OFFSET 0.368200 11.471298 0.095400
					CHANNELS 3 Xrotation Yrotation Zrotation
					JOINT Whistle1
					{
						OFFSET -0.002000 -6.349899 7.479800
						CHANNELS 3 Xrotation Yrotation Zrotation
						JOINT Whistle2
						{
							OFFSET -0.001300 -8.217598 4.717600
							CHANNELS 3 Xrotation Yrotation Zrotation
							End Site
							{
								OFFSET 0.000000 9.475479 0.000000
							}
						}
					}
				}
			}
		}
		JOINT Belly
		{
			OFFSET 0.212400 1.593002 3.163700
			CHANNELS 3 Xrotation Yrotation Zrotation
			End Site
			{
				OFFSET 0.000000 7.496635 0.000000
			}
		}
	}
	JOINT FitGrandmaFacialAnim_Joint
	{
		OFFSET 1.150000 -86.211197 -1.220100
		CHANNELS 3 Xrotation Yrotation Zrotation
		End Site
		{
			OFFSET 0.000000 31.666618 0.000000
		}
	}
}
MOTION
Frames: 4
Frame Time: 0.016667
-1.320857 80.768356 1.159975 -6.082183 -42.982165 -3.906718 -0.000000 0.000003 0.000000 -25.208961 5.911707 14.812076 35.320063 -14.812797 -0.216988 -7.713713 0.999967 -8.383475 0.000000 -0.000000 0.000000 0.000000 0.000002 0.000002 -0.000003 -0.000000 0.000000 1.506926 -14.970112 -15.164931 33.146901 -8.180336 -0.390488 -26.462827 -5.402941 18.536556 -0.000000 0.000002 0.000000 -0.000003 0.000000 0.000001 -0.000001 0.000003 -0.000001 5.842008 4.581724 -1.345216 11.836543 9.037616 -3.083969 11.836542 9.037613 -3.083969 -4.303058 -1.272938 0.206308 -6.271932 20.437792 -0.377165 -0.000001 0.000000 0.000000 -0.000001 0.000000 0.000000 -0.000001 0.000000 0.000000 -0.000001 0.000000 0.000000 -0.000001 0.000000 0.000000 -0.000001 0.000000 0.000000 -0.000001 0.000000 0.000000 -0.000001 0.000000 0.000000 -0.000001 0.000000 0.000000 -0.000001 0.000000 0.000000 -0.000001 0.000000 0.000000 -0.000001 0.000000 0.000000 -0.000001 0.000000 0.000000 -0.000001 0.000000 0.000000 -0.000001 0.000000 0.000000 -0.000001 0.000000 0.000000 -0.000001 0.000000 0.000000 -0.000001 0.000000 0.000000 -0.000001 0.000000 0.000000 1.392465 -0.696061 -7.877845 -14.260089 2.394337 -63.277113 9.865050 -47.524921 5.927921 16.172834 0.915174 18.795407 9.163606 4.814105 -5.499016 -0.335360 0.032533 0.783667 -0.000000 0.000002 0.000001 -0.902006 -6.980965 -3.808408 0.033403 0.804244 -16.418974 0.000004 -0.000003 0.000003 1.947840 9.683078 -14.539796 -0.456438 -1.565429 -21.881025 0.000001 -0.000000 -0.000002 2.605851 14.896824 -31.345241 -0.576867 -2.712378 -32.011570 0.000001 -0.000000 0.000000 4.170543 18.495030 -34.987303 -0.706828 -5.788628 -39.372940 0.000002 -0.000003 -0.000002 0.000001 0.000001 -0.000002 1.410922 9.461494 9.792744 1.220055 -24.270698 60.532927 -6.660707 41.858418 8.043846 6.225253 12.322331 11.673320 -8.895854 -4.903144 -0.383711 7.904820 -19.192475 -2.856866 -0.000000 0.000001 0.000001 -1.085503 -1.215492 4.525239 0.142128 -1.115557 16.942605 0.000001 0.000001 0.000002 -0.663640 -2.903894 12.731577 -0.660566 1.813466 30.579003 -0.000000 0.000001 -0.000001 2.423622 -7.404568 21.763257 -0.989709 3.764319 37.431154 0.000000 -0.000005 -0.000002 3.481030 -10.055089 24.322729 -1.458314 7.872042 41.091948 -0.000001 -0.000000 0.000000 -0.000000 0.000000 -0.000002 -0.000001 -0.000000 -0.000000 -0.000001 -0.000000 -0.000000 -0.000001 -0.000000 -0.000000 -0.000001 -0.000000 -0.000000 -0.000001 -0.000000 -0.000000 -0.000001 -0.000000 -0.000001 0.000000 -0.000002 0.000001 0.000000 -0.000002 0.000001 0.000000 0.000002 0.000000 -0.000000 0.000003 0.000000 
-1.341826 80.743195 1.172291 -5.899676 -42.965073 -3.748525 -0.000000 0.000002 0.000000 -25.368400 5.847686 14.756388 35.399057 -14.747282 -0.204624 -7.748165 1.005047 -8.415200 -0.000000 -0.000000 0.000000 -0.000000 0.000001 0.000000 0.000001 -0.000001 -0.000000 1.249660 -14.908447 -15.145285 33.431252 -8.551135 -0.439863 -26.520229 -5.426195 18.569246 0.000000 0.000002 0.000000 -0.000002 0.000000 -0.000001 0.000000 -0.000004 0.000001 5.792470 4.497741 -1.365948 11.734907 8.869609 -3.113897 11.734904 8.869614 -3.113900 -4.166000 -0.932301 0.146252 -6.156631 20.430132 -0.327628 -0.000001 0.000000 -0.000000 -0.000001 0.000000 -0.000000 -0.000001 0.000000 -0.000000 -0.000001 0.000000 -0.000000 -0.000001 0.000000 -0.000000 -0.000001 0.000000 -0.000000 -0.000001 0.000000 -0.000000 -0.000001 0.000000 -0.000000 -0.000001 0.000000 -0.000000 -0.000001 0.000000 -0.000000 -0.000001 0.000000 -0.000000 -0.000001 0.000000 -0.000000 -0.000001 0.000000 -0.000000 -0.000001 0.000000 -0.000000 -0.000001 0.000000 -0.000000 -0.000001 0.000000 -0.000000 -0.000001 0.000000 -0.000000 -0.000001 0.000000 -0.000000 -0.000001 0.000000 -0.000000 1.386624 -0.844139 -7.964504 -14.201889 2.560097 -62.985368 9.704245 -47.394464 5.847715 16.129183 0.756312 18.624111 8.640756 4.433194 -5.561611 -0.408223 0.793608 0.350489 -0.000002 -0.000001 0.000001 -1.041377 -6.906998 -4.872322 0.025682 0.590432 -17.734641 0.000001 0.000002 -0.000003 2.035056 9.279540 -16.022055 -0.473453 -1.804232 -24.052883 -0.000001 0.000002 -0.000001 2.690482 14.538187 -32.911909 -0.496769 -2.772635 -33.741292 0.000002 -0.000002 -0.000000 4.266809 18.108549 -37.030287 -0.686441 -5.727443 -41.165577 0.000000 0.000001 0.000002 0.000000 -0.000002 0.000002 1.382085 9.291156 9.911533 1.351758 -24.130083 60.409854 -6.095252 41.947183 7.777812 6.458485 12.305873 11.387811 -8.420296 -4.538849 0.140675 7.828458 -18.508805 -2.441057 -0.000002 -0.000000 0.000001 -1.150897 -0.748950 3.855737 0.139047 -1.114659 16.972370 -0.000001 -0.000002 0.000003 -0.656021 -2.941661 12.234570 -0.660076 1.806538 30.514020 -0.000001 -0.000003 -0.000002 2.492894 -7.589661 21.296002 -0.992143 3.759901 37.371148 0.000001 0.000000 -0.000001 3.629658 -10.398268 23.891184 -1.459791 7.869088 41.061882 -0.000003 0.000001 0.000002 0.000002 -0.000000 0.000001 0.000000 -0.000002 0.000001 0.000000 -0.000002 0.000001 0.000000 -0.000002 0.000001 0.000000 -0.000002 0.000001 0.000000 -0.000002 0.000001 0.000000 -0.000002 0.000001 0.000000 -0.000000 -0.000001 0.000000 -0.000000 -0.000001 0.000000 0.000002 -0.000000 -0.000000 0.000002 0.000000 
-1.358305 80.719307 1.190077 -5.662240 -42.891532 -3.545235 0.000000 0.000003 0.000000 -25.576069 5.769965 14.668108 35.462800 -14.695625 -0.191688 -7.759865 1.009445 -8.437449 -0.000000 0.000001 -0.000000 0.000000 0.000002 0.000001 0.000001 -0.000001 -0.000000 0.979975 -14.839363 -15.102462 33.707291 -9.012932 -0.500839 -26.566518 -5.455152 18.617815 -0.000000 0.000002 0.000000 -0.000001 -0.000001 -0.000002 -0.000000 -0.000001 -0.000001 5.741172 4.411404 -1.388748 11.629821 8.696618 -3.147945 11.629816 8.696620 -3.147945 -4.189969 -0.576355 0.043483 -6.017095 20.421169 -0.295644 0.000000 -0.000000 -0.000000 0.000000 -0.000000 -0.000000 0.000000 -0.000000 -0.000000 0.000000 -0.000000 -0.000000 0.000000 -0.000000 -0.000000 0.000000 -0.000000 -0.000000 0.000000 -0.000000 -0.000000 0.000000 -0.000000 -0.000000 0.000000 -0.000000 -0.000000 0.000000 -0.000000 -0.000000 0.000000 -0.000000 -0.000000 0.000000 -0.000000 -0.000000 0.000000 -0.000000 -0.000000 0.000000 -0.000000 -0.000000 0.000000 -0.000000 -0.000000 0.000000 -0.000000 -0.000000 0.000000 -0.000000 -0.000000 0.000000 -0.000000 -0.000000 0.000000 -0.000000 -0.000000 1.380126 -0.996765 -8.053119 -14.173308 2.709392 -62.680912 9.587350 -47.246690 5.801175 16.163760 0.571954 18.440100 8.124638 4.043982 -5.653089 -0.446826 1.595468 -0.110209 -0.000001 0.000002 -0.000004 -1.182639 -6.814255 -6.019471 0.012806 0.363558 -19.154352 0.000002 0.000001 -0.000001 2.116422 8.859742 -17.622211 -0.502096 -2.058220 -26.396193 -0.000005 0.000001 -0.000001 2.764096 14.158175 -34.618230 -0.416504 -2.836954 -35.640053 0.000003 0.000000 -0.000001 4.332926 17.683425 -39.232501 -0.662785 -5.660011 -43.158756 0.000004 -0.000000 -0.000000 -0.000001 0.000004 -0.000002 1.353089 9.120827 10.030858 1.496269 -24.000619 60.284950 -5.499487 42.033121 7.478102 6.779198 12.246903 11.024431 -7.858787 -4.169033 0.765180 7.781536 -17.752261 -1.975162 0.000002 0.000001 0.000002 -1.206876 -0.257589 3.105313 0.136254 -1.127652 16.886263 -0.000001 0.000001 0.000001 -0.647822 -2.986969 11.671365 -0.658983 1.789970 30.358039 0.000001 0.000000 -0.000003 2.561817 -7.792037 20.772969 -0.998018 3.749312 37.227154 -0.000002 -0.000002 -0.000001 3.778056 -10.770722 23.398813 -1.463319 7.862008 40.989656 -0.000001 -0.000001 0.000004 0.000004 -0.000001 0.000001 0.000001 0.000001 -0.000001 0.000001 0.000001 -0.000001 0.000001 0.000001 -0.000001 0.000001 0.000001 -0.000001 0.000001 0.000001 -0.000001 0.000001 0.000001 -0.000001 0.000001 -0.000001 0.000001 0.000001 -0.000001 0.000001 0.000000 0.000004 0.000000 0.000000 0.000003 0.000000 
-1.370011 80.696144 1.214077 -5.373431 -42.764415 -3.309155 -0.000000 0.000001 -0.000000 -25.829890 5.669301 14.563420 35.506762 -14.694083 -0.178127 -7.743171 1.011897 -8.460483 -0.000000 0.000002 0.000000 -0.000001 0.000002 -0.000001 -0.000002 -0.000001 0.000000 0.704164 -14.763420 -15.027342 33.966688 -9.562899 -0.572350 -26.596251 -5.488934 18.684071 0.000000 0.000002 -0.000000 -0.000002 0.000000 -0.000000 -0.000001 0.000004 -0.000001 5.689083 4.323543 -1.409743 11.522930 8.520907 -3.178273 11.522936 8.520896 -3.178270 -4.372952 -0.187670 -0.099259 -5.842716 20.412143 -0.274203 0.000001 0.000000 -0.000000 0.000001 0.000000 -0.000000 0.000001 0.000000 -0.000000 0.000001 0.000000 -0.000000 0.000001 0.000000 -0.000000 0.000001 0.000000 -0.000000 0.000001 0.000000 -0.000000 0.000001 0.000000 -0.000000 0.000001 0.000000 -0.000000 0.000001 0.000000 -0.000000 0.000001 0.000000 -0.000000 0.000001 0.000000 -0.000000 0.000001 0.000000 -0.000000 0.000001 0.000000 -0.000000 0.000001 0.000000 -0.000000 0.000001 0.000000 -0.000000 0.000001 0.000000 -0.000000 0.000001 0.000000 -0.000000 0.000001 0.000000 -0.000000 1.373124 -1.153254 -8.144308 -14.167247 2.845059 -62.375781 9.516528 -47.090370 5.789335 16.272642 0.371186 18.260282 7.615068 3.647144 -5.772859 -0.452406 2.437052 -0.597100 -0.000000 0.000001 0.000005 -1.323885 -6.703302 -7.245808 -0.006521 0.124175 -20.673154 0.000002 -0.000000 -0.000001 2.188757 8.425084 -19.334485 -0.544344 -2.326890 -28.903096 -0.000000 -0.000002 -0.000002 2.823272 13.758667 -36.457070 -0.336092 -2.906734 -37.699912 0.000003 -0.000001 0.000000 4.364258 17.223809 -41.585330 -0.634332 -5.587190 -45.342836 -0.000000 0.000000 0.000002 -0.000003 0.000001 0.000000 1.325402 8.962438 10.136577 1.656985 -23.878768 60.165005 -4.869290 42.117699 7.144443 7.188154 12.148858 10.581823 -7.214458 -3.789425 1.485789 7.762081 -16.923529 -1.462394 -0.000000 0.000001 0.000001 -1.250348 0.258060 2.275942 0.133626 -1.154134 16.687245 0.000002 0.000003 0.000000 -0.639257 -3.039715 11.043620 -0.657389 1.764015 30.113389 0.000000 0.000001 0.000001 2.629487 -8.011484 20.195438 -1.007280 3.732818 37.001256 -0.000000 0.000000 -0.000000 3.924445 -11.172144 22.846790 -1.468892 7.850915 40.876353 0.000001 -0.000002 0.000001 -0.000000 0.000001 0.000001 -0.000000 -0.000002 0.000000 -0.000000 -0.000002 0.000000 -0.000000 -0.000002 0.000000 -0.000000 -0.000002 0.000000 -0.000000 -0.000002 0.000000 -0.000000 -0.000002 0.000000 0.000001 -0.000000 0.000000 0.000001 -0.000000 0.000000 -0.000000 -0.000001 -0.000000 -0.000000 0.000001 -0.000000 
